<?xml version="1.0" encoding="UTF-8" standalone="no"?>
<!-- Created with Inkscape (http://www.inkscape.org/) -->

<svg
   xmlns:dc="http://purl.org/dc/elements/1.1/"
   xmlns:cc="http://creativecommons.org/ns#"
   xmlns:rdf="http://www.w3.org/1999/02/22-rdf-syntax-ns#"
   xmlns:svg="http://www.w3.org/2000/svg"
   xmlns="http://www.w3.org/2000/svg"
   xmlns:sodipodi="http://sodipodi.sourceforge.net/DTD/sodipodi-0.dtd"
   xmlns:inkscape="http://www.inkscape.org/namespaces/inkscape"
   id="svg2"
   version="1.1"
   inkscape:version="0.91 r13725"
   xml:space="preserve"
   width="201.70903"
   height="81.235764"
   viewBox="0 0 201.70903 81.235763"
   sodipodi:docname="logob.svg"><metadata
     id="metadata8"><rdf:RDF><cc:Work
         rdf:about=""><dc:format>image/svg+xml</dc:format><dc:type
           rdf:resource="http://purl.org/dc/dcmitype/StillImage" /><dc:title></dc:title></cc:Work></rdf:RDF></metadata><defs
     id="defs6"><clipPath
       clipPathUnits="userSpaceOnUse"
       id="clipPath16"><path
         d="m 0,283.46 283.46,0 L 283.46,0 0,0 0,283.46 Z"
         id="path18"
         inkscape:connector-curvature="0" /></clipPath><linearGradient
       x1="0"
       y1="0"
       x2="1"
       y2="0"
       gradientUnits="userSpaceOnUse"
       gradientTransform="matrix(-6.7671156,-33.221771,-33.221771,6.7671156,130.9019,174.77625)"
       spreadMethod="pad"
       id="linearGradient36"><stop
         style="stop-opacity:1;stop-color:#009bdd"
         offset="0"
         id="stop38" /><stop
         style="stop-opacity:1;stop-color:#009bdd"
         offset="0.3875"
         id="stop40" /><stop
         style="stop-opacity:1;stop-color:#2b73b4"
         offset="0.62"
         id="stop42" /><stop
         style="stop-opacity:1;stop-color:#2b73b4"
         offset="0.74670044"
         id="stop44" /><stop
         style="stop-opacity:1;stop-color:#002984"
         offset="1"
         id="stop46" /></linearGradient><clipPath
       clipPathUnits="userSpaceOnUse"
       id="clipPath54"><path
         d="m 0,283.46 283.46,0 L 283.46,0 0,0 0,283.46 Z"
         id="path56"
         inkscape:connector-curvature="0" /></clipPath><linearGradient
       x1="0"
       y1="0"
       x2="1"
       y2="0"
       gradientUnits="userSpaceOnUse"
       gradientTransform="matrix(0,19.457087,19.457087,0,115.67876,115.67017)"
       spreadMethod="pad"
       id="linearGradient86"><stop
         style="stop-opacity:1;stop-color:#4ea42b"
         offset="0"
         id="stop88" /><stop
         style="stop-opacity:1;stop-color:#b1c700"
         offset="1"
         id="stop90" /></linearGradient><linearGradient
       x1="0"
       y1="0"
       x2="1"
       y2="0"
       gradientUnits="userSpaceOnUse"
       gradientTransform="matrix(0,20.123999,20.123999,0,134.99507,115.33647)"
       spreadMethod="pad"
       id="linearGradient106"><stop
         style="stop-opacity:1;stop-color:#4ea42b"
         offset="0"
         id="stop108" /><stop
         style="stop-opacity:1;stop-color:#b1c700"
         offset="1"
         id="stop110" /></linearGradient><linearGradient
       x1="0"
       y1="0"
       x2="1"
       y2="0"
       gradientUnits="userSpaceOnUse"
       gradientTransform="matrix(0,19.790306,19.790306,0,153.58853,115.67017)"
       spreadMethod="pad"
       id="linearGradient126"><stop
         style="stop-opacity:1;stop-color:#4ea42b"
         offset="0"
         id="stop128" /><stop
         style="stop-opacity:1;stop-color:#b1c700"
         offset="1"
         id="stop130" /></linearGradient><linearGradient
       x1="0"
       y1="0"
       x2="1"
       y2="0"
       gradientUnits="userSpaceOnUse"
       gradientTransform="matrix(0,19.457087,19.457087,0,164.34422,115.67017)"
       spreadMethod="pad"
       id="linearGradient146"><stop
         style="stop-opacity:1;stop-color:#4ea42b"
         offset="0"
         id="stop148" /><stop
         style="stop-opacity:1;stop-color:#b1c700"
         offset="1"
         id="stop150" /></linearGradient><linearGradient
       x1="0"
       y1="0"
       x2="1"
       y2="0"
       gradientUnits="userSpaceOnUse"
       gradientTransform="matrix(0,19.457087,19.457087,0,174.25288,115.67017)"
       spreadMethod="pad"
       id="linearGradient166"><stop
         style="stop-opacity:1;stop-color:#4ea42b"
         offset="0"
         id="stop168" /><stop
         style="stop-opacity:1;stop-color:#b1c700"
         offset="1"
         id="stop170" /></linearGradient><linearGradient
       x1="0"
       y1="0"
       x2="1"
       y2="0"
       gradientUnits="userSpaceOnUse"
       gradientTransform="matrix(0,20.123999,20.123999,0,192.1382,115.33647)"
       spreadMethod="pad"
       id="linearGradient186"><stop
         style="stop-opacity:1;stop-color:#4ea42b"
         offset="0"
         id="stop188" /><stop
         style="stop-opacity:1;stop-color:#b1c700"
         offset="1"
         id="stop190" /></linearGradient><linearGradient
       x1="0"
       y1="0"
       x2="1"
       y2="0"
       gradientUnits="userSpaceOnUse"
       gradientTransform="matrix(0,19.790779,19.790779,0,211.42654,115.50332)"
       spreadMethod="pad"
       id="linearGradient206"><stop
         style="stop-opacity:1;stop-color:#4ea42b"
         offset="0"
         id="stop208" /><stop
         style="stop-opacity:1;stop-color:#b1c700"
         offset="1"
         id="stop210" /></linearGradient><clipPath
       clipPathUnits="userSpaceOnUse"
       id="clipPath218"><path
         d="m 0,283.46 283.46,0 L 283.46,0 0,0 0,283.46 Z"
         id="path220"
         inkscape:connector-curvature="0" /></clipPath></defs><sodipodi:namedview
     pagecolor="#bcbcbc"
     bordercolor="#666666"
     borderopacity="1"
     objecttolerance="10"
     gridtolerance="10"
     guidetolerance="10"
     inkscape:pageopacity="0"
     inkscape:pageshadow="2"
     inkscape:window-width="1920"
     inkscape:window-height="1018"
     id="namedview4"
     showgrid="false"
     fit-margin-top="0"
     fit-margin-left="0"
     fit-margin-right="0"
     fit-margin-bottom="0"
     inkscape:zoom="3.6684666"
     inkscape:cx="129.3455"
     inkscape:cy="5.5133279"
     inkscape:window-x="-8"
     inkscape:window-y="-8"
     inkscape:window-maximized="1"
     inkscape:current-layer="g10" /><g
     id="g10"
     inkscape:groupmode="layer"
     inkscape:label="BHLogo"
     transform="matrix(1.25,0,0,-1.25,-56.825274,215.3505)"><g
       id="g12"
       transform="matrix(0.92513041,0,0,0.92513041,3.4065664,8.1069093)"
       style="fill:#ececec"><g
         id="g14"
         clip-path="url(#clipPath16)"
         style="fill:#ececec"><g
           id="g20"
           transform="translate(107.4014,161.524)"
           style="fill:#ececec"><path
             d="m 0,0 c 0.29,0.3 0.562,0.621 0.873,0.897 4.289,3.81 9.101,4.234 14.262,2.133 3.277,-1.333 6.048,-3.444 8.616,-5.837 3.146,-2.931 6.258,-5.904 9.908,-8.224 2.246,-1.427 4.669,-2.177 7.379,-2.196 4.896,-0.033 10.25,3.661 11.607,9.413 C 54.553,4.282 47.939,11.935 39.656,11.149 35.267,10.733 32.043,8.494 29.918,4.65 29.691,4.239 29.505,3.804 29.219,3.213 c -1.198,1.205 -2.32,2.334 -3.54,3.562 0.464,0.75 0.865,1.528 1.385,2.216 3.382,4.473 7.902,6.891 13.499,6.944 7.938,0.076 14.558,-5.036 16.478,-12.448 1.817,-7.015 -0.163,-12.965 -5.696,-17.689 -1.631,-1.392 -3.491,-2.464 -5.528,-3.021 -2.311,-0.633 -4.684,-0.917 -7.145,-0.603 -3.78,0.481 -7.02,2.094 -9.869,4.453 -2.427,2.009 -4.63,4.288 -6.919,6.46 -3.508,3.33 -7.168,6.442 -11.831,8.067 C 6.655,2.338 3.41,2.043 0.379,0.014 0.297,-0.041 0.194,-0.064 0.101,-0.103 0.067,-0.068 0.034,-0.034 0,0"
             style="fill:#ececec;fill-opacity:1;fill-rule:nonzero;stroke:none"
             id="path22"
             inkscape:connector-curvature="0" /></g></g></g><g
       id="g24"
       transform="matrix(0.92513041,0,0,0.92513041,3.4065664,8.1069093)"
       style="fill:#ececec"><g
         id="g26"
         style="fill:#ececec"><g
           id="g32"
           style="fill:#ececec"><g
             id="g34"
             style="fill:#ececec"><path
               d="m 111.124,176.695 c -2.036,-0.557 -3.897,-1.629 -5.527,-3.02 l 0,0 C 100.063,168.95 98.083,163 99.9,155.984 l 0,0 c 1.92,-7.411 8.54,-12.523 16.479,-12.448 l 0,0 c 5.596,0.054 10.116,2.472 13.498,6.946 l 0,0 c 0.52,0.687 0.921,1.465 1.385,2.215 l 0,0 c -1.22,1.228 -2.331,2.345 -3.604,3.426 l 0,0 c -0.287,-0.59 -0.408,-0.889 -0.635,-1.301 l 0,0 c -2.125,-3.843 -5.348,-6.083 -9.738,-6.499 l 0,0 c -8.283,-0.785 -14.896,6.867 -12.988,14.964 l 0,0 c 1.356,5.751 6.712,9.445 11.606,9.412 l 0,0 c 2.711,-0.019 5.133,-0.768 7.379,-2.196 l 0,0 c 3.65,-2.319 6.762,-5.293 9.907,-8.224 l 0,0 c 2.57,-2.393 5.341,-4.504 8.617,-5.837 l 0,0 c 5.16,-2.101 9.974,-1.677 14.262,2.133 l 0,0 c 0.312,0.276 0.583,0.597 0.873,0.897 l 0,0 c -0.034,0.034 -0.067,0.068 -0.102,0.103 l 0,0 c -0.092,-0.038 -0.195,-0.063 -0.277,-0.117 l 0,0 c -3.031,-2.029 -6.276,-2.324 -9.674,-1.14 l 0,0 c -4.663,1.625 -8.322,4.737 -11.831,8.067 l 0,0 c -2.289,2.172 -4.492,4.451 -6.919,6.46 l 0,0 c -2.849,2.36 -6.088,3.972 -9.868,4.453 l 0,0 c -0.686,0.088 -1.364,0.129 -2.037,0.129 l 0,0 c -1.741,0 -3.441,-0.275 -5.109,-0.732"
               style="fill:#ececec;stroke:none"
               id="path48"
               inkscape:connector-curvature="0" /></g></g></g></g><g
       id="g50"
       transform="matrix(0.92513041,0,0,0.92513041,3.4065664,8.1069093)"
       style="fill:#ececec"><g
         id="g52"
         clip-path="url(#clipPath54)"
         style="fill:#ececec"><g
           id="g58"
           transform="translate(45.5,115.67)"
           style="fill:#ececec"><path
             d="m 0,0 0,13.787 c 0,3.141 2.584,6.003 6.17,6.003 3.725,0 6.31,-2.028 6.31,-5.447 0,-1.724 -0.611,-3.085 -1.946,-3.919 C 12.508,9.284 13.37,7.839 13.37,5.504 13.37,2.141 10.896,0 7.532,0 l -3.919,0 0,2.446 3.252,0 c 2.78,0 3.891,1.167 3.891,3.197 0,2.112 -1.417,3.196 -3.891,3.196 l -3.252,0 0,2.446 2.724,0 c 2.363,0 3.53,1.362 3.53,2.946 0,2.058 -1.612,3.114 -3.474,3.114 -2.418,0 -3.78,-1.501 -3.78,-3.781 L 2.613,0 0,0 Z"
             style="fill:#ececec;fill-opacity:1;fill-rule:nonzero;stroke:none"
             id="path60"
             inkscape:connector-curvature="0" /></g><g
           id="g62"
           transform="translate(63.7046,135.127)"
           style="fill:#ececec"><path
             d="m 0,0 0,-12.535 c 0,-3.003 1.223,-4.476 3.947,-4.476 l 2.53,0 0,-2.446 -2.919,0 c -3.753,0 -6.17,2.613 -6.17,6.282 L -2.612,0 0,0 Z"
             style="fill:#ececec;fill-opacity:1;fill-rule:nonzero;stroke:none"
             id="path64"
             inkscape:connector-curvature="0" /></g><g
           id="g66"
           transform="translate(74.0156,135.127)"
           style="fill:#ececec"><path
             d="m 0,0 0,-12.786 c 0,-2.641 1.307,-4.558 3.808,-4.558 2.502,0 3.836,1.917 3.836,4.558 l 0,12.786 2.613,0 0,-13.064 c 0,-3.78 -2.808,-6.726 -6.449,-6.726 -3.641,0 -6.421,2.946 -6.421,6.726 L -2.613,0 0,0 Z"
             style="fill:#ececec;fill-opacity:1;fill-rule:nonzero;stroke:none"
             id="path68"
             inkscape:connector-curvature="0" /></g><g
           id="g70"
           transform="translate(98.3359,124.5088)"
           style="fill:#ececec"><path
             d="m 0,0 -9.395,0 c 0.222,-3.669 3.474,-6.393 6.866,-6.393 l 2.529,0 0,-2.446 -2.057,0 c -5.837,0 -10.062,4.225 -10.062,9.729 0,5.504 4.225,9.728 10.062,9.728 l 2.057,0 0,-2.446 -1.751,0 c -5.087,0 -7.533,-3.78 -7.644,-5.726 L 0,2.446 0,0 Z"
             style="fill:#ececec;fill-opacity:1;fill-rule:nonzero;stroke:none"
             id="path72"
             inkscape:connector-curvature="0" /></g></g></g><g
       id="g74"
       transform="matrix(0.92513041,0,0,0.92513041,3.4065664,8.1069093)"
       style="fill:#ececec"><g
         id="g76"
         style="fill:#ececec"><g
           id="g82"
           style="fill:#ececec"><g
             id="g84"
             style="fill:#ececec"><path
               d="m 119.903,135.127 0,-8.172 -8.45,0 0,8.172 -2.611,0 0,-19.457 2.611,0 0,8.839 8.45,0 0,-8.839 2.614,0 0,19.457 -2.614,0 z"
               style="fill:#ececec;stroke:none"
               id="path92"
               inkscape:connector-curvature="0" /></g></g></g></g><g
       id="g94"
       transform="matrix(0.92513041,0,0,0.92513041,3.4065664,8.1069093)"
       style="fill:#ececec"><g
         id="g96"
         style="fill:#ececec"><g
           id="g102"
           style="fill:#ececec"><g
             id="g104"
             style="fill:#ececec"><path
               d="m 124.822,125.399 c 0,-5.614 4.669,-10.062 10.173,-10.062 l 0,0 c 5.503,0 10.173,4.448 10.173,10.062 l 0,0 c 0,5.615 -4.67,10.061 -10.173,10.061 l 0,0 c -5.504,0 -10.173,-4.446 -10.173,-10.061 m 2.724,0 c 0,4.141 3.14,7.616 7.449,7.616 l 0,0 c 4.308,0 7.449,-3.475 7.449,-7.616 l 0,0 c 0,-4.142 -3.141,-7.616 -7.449,-7.616 l 0,0 c -4.309,0 -7.449,3.474 -7.449,7.616"
               style="fill:#ececec;stroke:none"
               id="path112"
               inkscape:connector-curvature="0" /></g></g></g></g><g
       id="g114"
       transform="matrix(0.92513041,0,0,0.92513041,3.4065664,8.1069093)"
       style="fill:#ececec"><g
         id="g116"
         style="fill:#ececec"><g
           id="g122"
           style="fill:#ececec"><g
             id="g124"
             style="fill:#ececec"><path
               d="m 147.195,128.512 0,-12.842 2.614,0 0,13.592 c 0,2.251 1.584,3.753 3.835,3.753 l 0,0 c 1.779,0 3.392,-1.251 3.392,-3.169 l 0,0 c 0,-2.168 -1.725,-3.224 -4.031,-3.224 l 0,0 -2.057,0 0,-2.446 2.891,0 c 2.418,0 3.53,-1.251 3.53,-3.169 l 0,0 0,-5.337 2.612,0 0,5.42 c 0,2.835 -0.917,3.837 -2.585,4.503 l 0,0 c 1.612,0.972 2.251,2.474 2.251,4.336 l 0,0 c 0,3.003 -2.418,5.531 -6.003,5.531 l 0,0 c -3.835,0 -6.449,-2.584 -6.449,-6.948"
               style="fill:#ececec;stroke:none"
               id="path132"
               inkscape:connector-curvature="0" /></g></g></g></g><g
       id="g134"
       transform="matrix(0.92513041,0,0,0.92513041,3.4065664,8.1069093)"
       style="fill:#ececec"><g
         id="g136"
         style="fill:#ececec"><g
           id="g142"
           style="fill:#ececec"><g
             id="g144"
             style="fill:#ececec"><path
               d="m 163.038,115.67 2.613,0 0,19.457 -2.613,0 0,-19.457 z"
               style="fill:#ececec;stroke:none"
               id="path152"
               inkscape:connector-curvature="0" /></g></g></g></g><g
       id="g154"
       transform="matrix(0.92513041,0,0,0.92513041,3.4065664,8.1069093)"
       style="fill:#ececec"><g
         id="g156"
         style="fill:#ececec"><g
           id="g162"
           style="fill:#ececec"><g
             id="g164"
             style="fill:#ececec"><path
               d="m 168.791,135.127 0,-2.446 8.922,0 -8.755,-12.175 c -0.64,-0.889 -1.195,-1.723 -1.195,-2.945 l 0,0 c 0,-0.89 0.722,-1.891 2.112,-1.891 l 0,0 10.868,0 0,2.446 -10.145,0 8.7,12.341 c 0.723,1.001 1.139,1.891 1.139,3.002 l 0,0 c 0,0.834 -0.611,1.668 -2.278,1.668 l 0,0 -9.368,0 z"
               style="fill:#ececec;stroke:none"
               id="path172"
               inkscape:connector-curvature="0" /></g></g></g></g><g
       id="g174"
       transform="matrix(0.92513041,0,0,0.92513041,3.4065664,8.1069093)"
       style="fill:#ececec"><g
         id="g176"
         style="fill:#ececec"><g
           id="g182"
           style="fill:#ececec"><g
             id="g184"
             style="fill:#ececec"><path
               d="m 181.965,125.399 c 0,-5.614 4.67,-10.062 10.172,-10.062 l 0,0 c 5.505,0 10.175,4.448 10.175,10.062 l 0,0 c 0,5.615 -4.67,10.061 -10.175,10.061 l 0,0 c -5.502,0 -10.172,-4.446 -10.172,-10.061 m 2.724,0 c 0,4.141 3.141,7.616 7.448,7.616 l 0,0 c 4.31,0 7.45,-3.475 7.45,-7.616 l 0,0 c 0,-4.142 -3.14,-7.616 -7.45,-7.616 l 0,0 c -4.307,0 -7.448,3.474 -7.448,7.616"
               style="fill:#ececec;stroke:none"
               id="path192"
               inkscape:connector-curvature="0" /></g></g></g></g><g
       id="g194"
       transform="matrix(0.92513041,0,0,0.92513041,3.4065664,8.1069093)"
       style="fill:#ececec"><g
         id="g196"
         style="fill:#ececec"><g
           id="g202"
           style="fill:#ececec"><g
             id="g204"
             style="fill:#ececec"><path
               d="m 204.339,132.903 0,-17.233 2.612,0 0,15.955 0.056,0 6.92,-14.232 c 0.725,-1.5 1.336,-1.89 2.587,-1.89 l 0,0 c 1.361,0 2.001,0.807 2.001,1.862 l 0,0 0,17.762 -2.614,0 0,-15.621 -0.055,0 -6.254,12.924 c -0.946,1.974 -1.473,2.864 -2.974,2.864 l 0,0 c -1.279,0 -2.279,-0.667 -2.279,-2.391"
               style="fill:#ececec;stroke:none"
               id="path212"
               inkscape:connector-curvature="0" /></g></g></g></g><g
       id="g214"
       transform="matrix(0.92513041,0,0,0.92513041,3.4065664,8.1069093)"
       style="fill:#ffffff;stroke:#ffffff;stroke-width:0.56727138;stroke-miterlimit:4;stroke-dasharray:none"><g
         id="g216"
         clip-path="url(#clipPath218)"
         style="fill:#ffffff;stroke:#ffffff;stroke-width:0.56727138;stroke-miterlimit:4;stroke-dasharray:none"><path
           d="m 46.229,108.385 -0.272,0 0,5.255 0.272,0 0,-5.255 z"
           style="fill:#ffffff;fill-opacity:1;fill-rule:nonzero;stroke:#ffffff;stroke-width:0.56727138;stroke-miterlimit:4;stroke-dasharray:none"
           id="path222"
           inkscape:connector-curvature="0" /><g
           id="g224"
           transform="translate(60.6401,108.3848)"
           style="fill:#ffffff;stroke:#ffffff;stroke-width:0.56727138;stroke-miterlimit:4;stroke-dasharray:none"><path
             d="m 0,0 -0.272,0 -0.393,3.509 c -0.04,0.352 -0.064,0.64 -0.12,1.273 C -1.033,4.117 -1.065,4.046 -1.29,3.509 L -2.788,0 -3.028,0 -4.598,3.509 C -4.838,4.046 -4.911,4.229 -5.127,4.782 -5.175,4.149 -5.199,3.854 -5.231,3.509 L -5.559,0 l -0.257,0 0.537,5.415 0.12,0 1.699,-3.789 c 0.104,-0.232 0.2,-0.456 0.28,-0.633 0.032,-0.096 0.064,-0.168 0.096,-0.232 l 0.192,-0.456 c 0.248,0.625 0.184,0.472 0.208,0.536 0.097,0.232 0.201,0.489 0.329,0.785 l 1.61,3.789 0.12,0 L 0,0 Z"
             style="fill:#ffffff;fill-opacity:1;fill-rule:nonzero;stroke:#ffffff;stroke-width:0.56727138;stroke-miterlimit:4;stroke-dasharray:none"
             id="path226"
             inkscape:connector-curvature="0" /></g><g
           id="g228"
           transform="translate(69.5,110.9961)"
           style="fill:#ffffff;stroke:#ffffff;stroke-width:0.56727138;stroke-miterlimit:4;stroke-dasharray:none"><path
             d="m 0,0 c 0.344,-0.023 0.433,-0.023 0.729,-0.023 1.001,0 1.57,0.472 1.57,1.305 0,0.384 -0.2,0.761 -0.521,0.961 C 1.554,2.38 1.169,2.46 0.721,2.46 0.521,2.46 0.336,2.451 0,2.42 L 0,0 Z M -0.272,2.636 C -0.136,2.644 -0.032,2.651 0.032,2.66 0.304,2.684 0.601,2.7 0.817,2.7 1.458,2.7 1.875,2.571 2.163,2.283 2.435,2.019 2.571,1.675 2.571,1.25 2.571,0.745 2.291,0.249 1.867,-0.016 1.61,-0.168 1.169,-0.264 0.729,-0.264 l -0.176,0 c -0.169,0 -0.289,0 -0.553,0.008 l 0,-2.355 -0.272,0 0,5.247 z"
             style="fill:#ffffff;fill-opacity:1;fill-rule:nonzero;stroke:#ffffff;stroke-width:0.56727138;stroke-miterlimit:4;stroke-dasharray:none"
             id="path230"
             inkscape:connector-curvature="0" /></g><g
           id="g232"
           transform="translate(80.9639,111.0528)"
           style="fill:#ffffff;stroke:#ffffff;stroke-width:0.56727138;stroke-miterlimit:4;stroke-dasharray:none"><path
             d="m 0,0 1.098,0 c 0.128,0 0.168,0.008 0.272,0.04 0.552,0.192 0.873,0.641 0.873,1.201 0,0.345 -0.184,0.705 -0.465,0.913 -0.2,0.145 -0.569,0.249 -0.913,0.249 l -0.216,0 C 0.449,2.403 0.312,2.395 0,2.363 L 0,0 Z M -0.272,2.563 C 0.28,2.635 0.4,2.644 0.873,2.644 1.875,2.644 2.516,2.091 2.516,1.218 2.516,0.745 2.275,0.296 1.882,0.04 1.747,-0.049 1.618,-0.104 1.394,-0.185 l 1.738,-2.483 -0.344,0 -1.65,2.428 -1.138,0 0,-2.428 -0.272,0 0,5.231 z"
             style="fill:#ffffff;fill-opacity:1;fill-rule:nonzero;stroke:#ffffff;stroke-width:0.56727138;stroke-miterlimit:4;stroke-dasharray:none"
             id="path234"
             inkscape:connector-curvature="0" /></g><g
           id="g236"
           transform="translate(92.2109,111.0684)"
           style="fill:#ffffff;stroke:#ffffff;stroke-width:0.56727138;stroke-miterlimit:4;stroke-dasharray:none"><path
             d="m 0,0 c 0,-0.777 0.256,-1.418 0.745,-1.883 0.425,-0.408 1.018,-0.648 1.586,-0.648 1.434,0 2.332,0.969 2.332,2.515 0,0.729 -0.273,1.402 -0.754,1.834 C 3.501,2.195 2.892,2.428 2.323,2.428 0.945,2.428 0,1.442 0,0 m 4.943,-0.024 c 0,-1.642 -1.058,-2.764 -2.604,-2.764 -0.889,0 -1.706,0.425 -2.171,1.138 -0.296,0.449 -0.448,1.002 -0.448,1.65 0,1.514 1.129,2.676 2.595,2.676 1.554,0 2.628,-1.106 2.628,-2.7"
             style="fill:#ffffff;fill-opacity:1;fill-rule:nonzero;stroke:#ffffff;stroke-width:0.56727138;stroke-miterlimit:4;stroke-dasharray:none"
             id="path238"
             inkscape:connector-curvature="0" /></g><g
           id="g240"
           transform="translate(106.8384,110.003)"
           style="fill:#ffffff;stroke:#ffffff;stroke-width:0.56727138;stroke-miterlimit:4;stroke-dasharray:none"><path
             d="M 0,0 C 0.336,-0.833 0.336,-0.841 0.497,-1.298 0.681,-0.785 0.793,-0.488 0.985,0 L 2.459,3.677 2.7,3.597 0.593,-1.618 l -0.217,0 -2.122,5.215 0.256,0.08 L 0,0 Z"
             style="fill:#ffffff;fill-opacity:1;fill-rule:nonzero;stroke:#ffffff;stroke-width:0.56727138;stroke-miterlimit:4;stroke-dasharray:none"
             id="path242"
             inkscape:connector-curvature="0" /></g><path
           d="m 118.31,108.385 -0.272,0 0,5.255 0.272,0 0,-5.255 z"
           style="fill:#ffffff;fill-opacity:1;fill-rule:nonzero;stroke:#ffffff;stroke-width:0.56727138;stroke-miterlimit:4;stroke-dasharray:none"
           id="path244"
           inkscape:connector-curvature="0" /><g
           id="g246"
           transform="translate(127.3701,113.6963)"
           style="fill:#ffffff;stroke:#ffffff;stroke-width:0.56727138;stroke-miterlimit:4;stroke-dasharray:none"><path
             d="m 0,0 3.132,-3.894 c 0.329,-0.408 0.417,-0.528 0.737,-0.953 l 0,0.216 -0.008,0.217 c -0.008,0.44 -0.008,0.585 -0.008,0.809 l 0,3.548 0.249,0 0,-5.255 -0.121,-0.055 -3.14,3.909 c -0.352,0.433 -0.432,0.536 -0.745,0.953 l 0,-0.217 0.008,-0.215 c 0.008,-0.441 0.008,-0.585 0.008,-0.81 l 0,-3.565 -0.248,0 0,5.272 L 0,0 Z"
             style="fill:#ffffff;fill-opacity:1;fill-rule:nonzero;stroke:#ffffff;stroke-width:0.56727138;stroke-miterlimit:4;stroke-dasharray:none"
             id="path248"
             inkscape:connector-curvature="0" /></g><g
           id="g250"
           transform="translate(144.5615,112.9034)"
           style="fill:#ffffff;stroke:#ffffff;stroke-width:0.56727138;stroke-miterlimit:4;stroke-dasharray:none"><path
             d="m 0,0 c -0.545,0.408 -1.09,0.593 -1.747,0.593 -1.361,0 -2.379,-1.034 -2.379,-2.428 0,-1.426 1.074,-2.531 2.459,-2.531 0.642,0 0.994,0.088 1.538,0.385 l 0,1.729 -1.538,0 0.057,0.241 1.754,0 0,-2.115 c -0.624,-0.36 -1.146,-0.497 -1.834,-0.497 -1.563,0 -2.716,1.185 -2.716,2.804 0,0.777 0.392,1.594 0.993,2.083 0.457,0.369 1.065,0.577 1.683,0.577 0.72,0 1.241,-0.16 1.874,-0.593 L 0,0 Z"
             style="fill:#ffffff;fill-opacity:1;fill-rule:nonzero;stroke:#ffffff;stroke-width:0.56727138;stroke-miterlimit:4;stroke-dasharray:none"
             id="path252"
             inkscape:connector-curvature="0" /></g><g
           id="g254"
           transform="translate(172.7988,108.6329)"
           style="fill:#ffffff;stroke:#ffffff;stroke-width:0.56727138;stroke-miterlimit:4;stroke-dasharray:none"><path
             d="m 0,0 2.42,0 -0.057,-0.248 -2.634,0 0,5.255 L 0,5.007 0,0 Z"
             style="fill:#ffffff;fill-opacity:1;fill-rule:nonzero;stroke:#ffffff;stroke-width:0.56727138;stroke-miterlimit:4;stroke-dasharray:none"
             id="path256"
             inkscape:connector-curvature="0" /></g><path
           d="m 183.966,108.385 -0.271,0 0,5.255 0.271,0 0,-5.255 z"
           style="fill:#ffffff;fill-opacity:1;fill-rule:nonzero;stroke:#ffffff;stroke-width:0.56727138;stroke-miterlimit:4;stroke-dasharray:none"
           id="path258"
           inkscape:connector-curvature="0" /><g
           id="g260"
           transform="translate(194.1963,110.003)"
           style="fill:#ffffff;stroke:#ffffff;stroke-width:0.56727138;stroke-miterlimit:4;stroke-dasharray:none"><path
             d="M 0,0 C 0.336,-0.833 0.336,-0.841 0.496,-1.298 0.681,-0.785 0.793,-0.488 0.985,0 l 1.474,3.677 0.24,-0.08 -2.106,-5.215 -0.217,0 -2.123,5.215 0.257,0.08 L 0,0 Z"
             style="fill:#ffffff;fill-opacity:1;fill-rule:nonzero;stroke:#ffffff;stroke-width:0.56727138;stroke-miterlimit:4;stroke-dasharray:none"
             id="path262"
             inkscape:connector-curvature="0" /></g><g
           id="g264"
           transform="translate(207.999,113.3995)"
           style="fill:#ffffff;stroke:#ffffff;stroke-width:0.56727138;stroke-miterlimit:4;stroke-dasharray:none"><path
             d="m 0,0 -2.332,0 0,-2.114 2.06,0 0,-0.241 -2.06,0 0,-2.412 2.628,0 -0.048,-0.248 -2.852,0 0,5.255 L 0,0.24 0,0 Z"
             style="fill:#ffffff;fill-opacity:1;fill-rule:nonzero;stroke:#ffffff;stroke-width:0.56727138;stroke-miterlimit:4;stroke-dasharray:none"
             id="path266"
             inkscape:connector-curvature="0" /></g><g
           id="g268"
           transform="translate(219.0937,113.0547)"
           style="fill:#ffffff;stroke:#ffffff;stroke-width:0.56727138;stroke-miterlimit:4;stroke-dasharray:none"><path
             d="m 0,0 c -0.312,0.289 -0.665,0.441 -1.01,0.441 -0.656,0 -1.105,-0.417 -1.105,-1.034 0,-0.368 0.144,-0.64 0.441,-0.833 0.112,-0.063 0.256,-0.143 0.433,-0.232 l 0.456,-0.216 c 0.793,-0.385 1.057,-0.745 1.057,-1.426 0,-0.882 -0.64,-1.474 -1.593,-1.474 -0.545,0 -0.946,0.16 -1.427,0.569 l 0.112,0.28 c 0.441,-0.425 0.833,-0.6 1.338,-0.6 0.329,0 0.633,0.088 0.85,0.248 0.256,0.192 0.44,0.56 0.44,0.905 0,0.393 -0.112,0.688 -0.337,0.889 -0.192,0.169 -0.464,0.329 -1.025,0.577 -0.456,0.208 -0.641,0.337 -0.785,0.528 -0.16,0.217 -0.241,0.465 -0.241,0.762 0,0.745 0.602,1.305 1.403,1.305 0.4,0 0.777,-0.144 1.138,-0.432 L 0,0 Z"
             style="fill:#ffffff;fill-opacity:1;fill-rule:nonzero;stroke:#ffffff;stroke-width:0.56727138;stroke-miterlimit:4;stroke-dasharray:none"
             id="path270"
             inkscape:connector-curvature="0" /></g></g></g></g></svg>